<?xml version="1.0" encoding="UTF-8"?><svg id="Logos" xmlns="http://www.w3.org/2000/svg" xmlns:xlink="http://www.w3.org/1999/xlink" viewBox="0 0 504 144"><defs><style>.cls-1{fill:url(#linear-gradient-2);}.cls-1,.cls-2,.cls-3{stroke:#fff;stroke-miterlimit:10;stroke-width:5.37829px;}.cls-4{fill:#fff;}.cls-2{fill:url(#linear-gradient-3);}.cls-3{fill:url(#linear-gradient);}</style><linearGradient id="linear-gradient" x1="-449.34881" y1="-1868.92055" x2="-408.00244" y2="-1804.76829" gradientTransform="translate(539 -1785.5) scale(1 -1)" gradientUnits="userSpaceOnUse"><stop offset="0" stop-color="#39a845"/><stop offset="1" stop-color="#7fd37f"/></linearGradient><linearGradient id="linear-gradient-2" x1="-421.83975" y1="-1907.48294" x2="-376.84688" y2="-1867.69152" gradientTransform="translate(539 -1785.5) scale(1 -1)" gradientUnits="userSpaceOnUse"><stop offset="0" stop-color="#ffc300"/><stop offset="1" stop-color="#ffd02e"/></linearGradient><linearGradient id="linear-gradient-3" x1="-429.56403" y1="-1834.76425" x2="-406.95936" y2="-1826.68767" gradientTransform="translate(539 -1785.5) scale(1 -1)" gradientUnits="userSpaceOnUse"><stop offset="0" stop-color="#ffc300"/><stop offset="1" stop-color="#ffd02e"/></linearGradient></defs><g><path class="cls-3" d="m91.89582,23.78827c20.9735-.88114,41.94396-1.75923,62.91745-2.64036-6.53993,15.92145-13.07985,31.84289-19.62283,47.76434-10.2657.30489-20.52836.60978-30.79406.91468-3.15563,17.5831-6.31431,35.16316-9.46994,52.74626h-16.43671c4.46666-32.9283,8.93638-65.85661,13.40609-98.78491Z"/><path class="cls-1" d="m146.32204,93.60847h-22.98273c.79881,5.69233,1.60068,11.38161,2.3995,17.07393,12.65301-1.32628,25.30906-2.65256,37.96207-3.97579.45734,5.59476.91162,11.18953,1.36896,16.78124-20.02224-.20428-40.04143-.4055-60.06367-.60978,2.75012-13.77195,5.4972-27.54392,8.24732-41.31587l32.91306-1.8202.15549,13.86647h0Z"/><polygon class="cls-2" points="112.21991 38.88956 108.35998 51.83831 125.02841 53.07312 130.87013 36.98703 112.21991 38.88956"/></g><g><path class="cls-4" d="m208.42236,110.53516c-3.12012,0-5.33984-.46777-6.65625-1.40332-1.31787-.93652-2.11572-2.14844-2.3916-3.64062-.27783-1.48926-.41602-2.99805-.41602-4.52344v-53.76855c0-3.60352.70996-6.08398,2.13184-7.43555,1.42041-1.35254,3.96826-2.02832,7.64404-2.02832h38.06396c1.59424,0,3.10205.13965,4.52393.41602,1.41992.27832,2.59961,1.07617,3.53613,2.39258.93652,1.31738,1.40332,3.57129,1.40332,6.75977,0,3.12012-.4668,5.33984-1.40332,6.65625-.93652,1.31738-2.13184,2.11523-3.58789,2.3916-1.45605.27832-2.98193.41602-4.57617.41602h-28.7041v9.25586h19.24023c1.59424,0,3.01611.12207,4.26367.36426,1.24805.24414,2.25244.91992,3.01611,2.02832.76221,1.10938,1.14404,3.05176,1.14404,5.82324,0,2.63574-.38184,4.52441-1.14404,5.66797-.76367,1.14453-1.80371,1.82031-3.12012,2.02832-1.31787.20801-2.77344.3125-4.36768.3125h-19.03223v9.25586h28.80811c1.59424,0,3.10205.13965,4.52393.41602,1.41992.27734,2.59961,1.0752,3.53613,2.3916.93652,1.31836,1.40332,3.57227,1.40332,6.75977,0,3.12012-.4668,5.33984-1.40332,6.65625-.93652,1.31836-2.13184,2.11426-3.58789,2.3916-1.45605.27637-2.98193.41602-4.57617.41602h-38.27197Z"/><path class="cls-4" d="m269.37402,132.58398c-3.05176,0-5.23633-.45215-6.55176-1.35254-1.31836-.90137-2.09863-2.0459-2.34082-3.43164-.24316-1.3877-.36328-2.84375-.36328-4.36816v-56.47168c0-1.52441.12012-2.98047.36328-4.36816.24219-1.38672,1.00488-2.54785,2.28809-3.48438,1.28223-.93555,3.44824-1.4043,6.5-1.4043,2.42676,0,4.43652.33008,6.03223.98828,1.59375.66016,2.73828,1.68164,3.43164,3.06836v61.56738c.13867,1.52441.05273,2.99902-.25977,4.4209-.31152,1.41992-1.12793,2.58203-2.44336,3.4834-1.31836.90039-3.53613,1.35254-6.65625,1.35254Zm19.24023-23.2959c-3.39844,0-6.34473-.69238-8.84082-2.08008-2.49609-1.38672-4.54102-3.27637-6.13574-5.66797-1.5957-2.39258-2.77344-5.1123-3.53613-8.16406-.76367-3.05078-1.10938-6.27441-1.04004-9.67285.06836-3.32715.50195-6.55176,1.30078-9.67188.7959-3.12012,1.99219-5.8916,3.58789-8.31934,1.59375-2.42676,3.60352-4.35059,6.03125-5.77246,2.42676-1.41992,5.30469-2.13184,8.63281-2.13184,3.0498,0,6.01367.72754,8.8916,2.18359,2.87598,1.45605,5.45996,3.41602,7.74805,5.87598,2.28809,2.46191,4.08984,5.25195,5.4082,8.37207,1.31641,3.12012,1.97559,6.34473,1.97559,9.67188,0,3.46777-.65918,6.74414-1.97559,9.82812-1.31836,3.08594-3.10449,5.79004-5.35645,8.1123-2.25391,2.32422-4.81934,4.14355-7.69629,5.45996-2.87695,1.31836-5.87598,1.97656-8.99512,1.97656Zm-2.49609-17.68066c1.38574,0,2.65137-.3457,3.7959-1.04004,1.14355-.69238,2.06152-1.61133,2.75586-2.75586.69238-1.14355,1.04004-2.37402,1.04004-3.69238,0-1.38574-.33008-2.65137-.98828-3.7959-.65918-1.14355-1.55957-2.04395-2.7041-2.7041-1.14355-.65723-2.40918-.9873-3.7959-.9873-1.3877,0-2.65234.34766-3.7959,1.04004-1.14355.69336-2.0459,1.5957-2.7041,2.7041-.65918,1.10938-.98828,2.35742-.98828,3.74316,0,1.31836.34668,2.54883,1.04004,3.69238.69238,1.14453,1.59473,2.06348,2.7041,2.75586,1.1084.69434,2.32227,1.04004,3.64062,1.04004Z"/><path class="cls-4" d="m326.38281,52.71191c-3.12012,0-5.33984-.46875-6.65625-1.4043-1.31738-.93555-2.09766-2.13184-2.33984-3.58789-.24414-1.45605-.36426-2.94629-.36426-4.47168,0-1.59473.13867-3.10254.41602-4.52441.27637-1.41992,1.07422-2.58203,2.39258-3.48438,1.31543-.89941,3.53516-1.35156,6.65527-1.35156s5.32031.46777,6.60449,1.4043c1.28223.93555,2.06152,2.13184,2.33984,3.58789.27637,1.45605.41602,2.94727.41602,4.47168,0,1.52637-.13965,3.01562-.41602,4.47168-.27832,1.45605-1.05762,2.63574-2.33984,3.53613-1.28418.90234-3.51953,1.35254-6.70801,1.35254Zm0,57.82324c-3.12012,0-5.33984-.46777-6.65625-1.40332-1.31738-.93652-2.09766-2.13184-2.33984-3.58789-.24414-1.45605-.36426-2.94629-.36426-4.47266v-33.90332c0-1.52441.13867-2.99805.41602-4.41992.27637-1.4209,1.07422-2.60059,2.39258-3.53613,1.31543-.93652,3.53516-1.4043,6.65527-1.4043s5.32031.46777,6.60449,1.4043c1.28223.93555,2.06152,2.13184,2.33984,3.58789.27637,1.45605.41602,2.98145.41602,4.57617v33.7998c0,1.52539-.13965,3.01562-.41602,4.47168-.27832,1.45605-1.05762,2.63574-2.33984,3.53613-1.28418.90039-3.51953,1.35156-6.70801,1.35156Z"/><path class="cls-4" d="m367.80566,111.05566c-2.84375,0-5.8418-.57227-8.99609-1.71582-3.15527-1.14453-6.11914-2.84277-8.8916-5.09668-2.77344-2.25195-5.02734-5.07812-6.75977-8.47559-1.73438-3.39648-2.60059-7.34863-2.60059-11.85645,0-4.43555.86621-8.33594,2.60059-11.69922,1.73242-3.3623,3.96777-6.15234,6.70801-8.37207,2.73828-2.21875,5.68359-3.90039,8.83984-5.04395,3.1543-1.14453,6.11816-1.71582,8.8916-1.71582,2.63477,0,4.92285.27734,6.86426.83105,1.94043.55664,3.53613,1.16211,4.78418,1.82031,1.24805.66016,2.14844,1.16211,2.7041,1.50781,1.38574.83203,2.68555,1.78613,3.89941,2.86035,1.21289,1.07617,1.82031,2.51367,1.82031,4.31641,0,.90137-.17383,1.81934-.51953,2.75586-.34766.93555-.90234,1.99316-1.66406,3.17188-2.49609,3.81348-4.99219,5.71973-7.48828,5.71973-1.11035,0-2.08008-.19043-2.91211-.57227-.83203-.37988-1.5957-.81348-2.28809-1.2998-.69336-.48438-1.43945-.91797-2.23633-1.2998-.79785-.37988-1.78516-.57227-2.96387-.57227-1.3877,0-2.66992.34766-3.84766,1.04004-1.17969.69434-2.11621,1.6123-2.80762,2.75586-.69434,1.14453-1.04004,2.44434-1.04004,3.90039s.3457,2.77344,1.04004,3.95215c.69141,1.17969,1.61133,2.11523,2.75586,2.80762,1.14355.69434,2.37402,1.04004,3.69141,1.04004.9707,0,1.78418-.10352,2.44434-.31152.6582-.20801,1.16016-.43262,1.50781-.67676.34668-.24121.55469-.36328.62402-.36328.9707-.55469,1.88867-1.07422,2.75586-1.56055.86621-.48438,1.75-.72754,2.65234-.72754,1.17773,0,2.3916.43359,3.63965,1.2998,1.24805.86816,2.63477,2.27148,4.16016,4.21191,1.45605,1.80371,2.27051,3.48438,2.44434,5.04395.17188,1.56055-.22559,3.0166-1.19629,4.36816-.97168,1.35156-2.46191,2.65234-4.47168,3.90039-.20801.13965-.91992.53711-2.13184,1.19531-1.21387.66016-2.82617,1.30078-4.83594,1.92383-2.01172.62402-4.4043.93652-7.17676.93652Z"/><path class="cls-4" d="m410.70215,111.47168c-1.94238,0-4.1084-.22559-6.5-.67578-2.3916-.45215-4.71582-1.11035-6.96777-1.97656-2.25391-.86621-4.10742-1.8877-5.56445-3.06738-1.45508-1.17871-2.18359-2.53027-2.18359-4.05664,0-.69238.15625-1.47168.46777-2.33984.31152-.86621.74512-1.82031,1.2998-2.85938.55469-1.04004,1.24805-2.14844,2.08008-3.32812.48438-.69238,1.05664-1.21289,1.7168-1.56055.6582-.3457,1.4375-.51953,2.33984-.51953,1.24805,0,2.45996.25977,3.63965.7793,1.17871.52051,2.35645,1.11035,3.53613,1.76855,1.17773.65918,2.4082,1.24805,3.69141,1.76758,1.2832.52051,2.65234.78027,4.1084.78027,1.31641,0,2.30371-.1377,2.96387-.41602.6582-.27637.98828-.69238.98828-1.24805,0-.55371-.22656-1.00391-.67578-1.35156-.45215-.34668-1.07617-.64062-1.87207-.88477-.79785-.24219-1.71582-.46777-2.75684-.67578-1.03906-.20801-2.14941-.4502-3.32812-.72754-1.17969-.27637-2.39062-.62402-3.63867-1.04004-1.5957-.48438-3.15625-1.12598-4.68066-1.92383-1.52637-.79688-2.89551-1.85449-4.1084-3.17285-1.21289-1.31543-2.18359-2.91113-2.91211-4.7832-.72754-1.87207-1.0918-4.16016-1.0918-6.86426,0-3.60449.83203-6.62012,2.49609-9.04785,1.66406-2.42676,4.125-4.26465,7.38477-5.5127,3.25781-1.24707,7.2793-1.87109,12.06348-1.87109,1.17871,0,2.35645.06934,3.53613.20801,1.17773.13965,2.37402.34766,3.58789.62402,1.21289.27734,2.42578.6416,3.64062,1.0918,1.21094.45117,2.44336.95312,3.69141,1.50781,2.56445,1.10938,3.88281,2.65234,3.95215,4.62793.06738,1.97559-.66016,4.04004-2.18457,6.1875-.83203,1.31836-1.68164,2.30664-2.54688,2.96484-.86914.65918-1.75195.9873-2.65234.9873-1.11035,0-2.32422-.31152-3.64062-.93555-1.31836-.62402-2.70312-1.24805-4.16016-1.87207-1.45508-.62402-2.91211-.93652-4.36719-.93652-.83203,0-1.54395.08789-2.13281.26074-.58984.17383-1.02344.41602-1.2998.72754-.27832.3125-.41602.67578-.41602,1.0918,0,.76367.26074,1.37012.78027,1.82031.51953.45215,1.21289.81543,2.08008,1.0918.86621.27832,1.87207.52051,3.01562.72852,1.14453.20801,2.375.41602,3.69238.62402,1.80176.27734,3.65625.71191,5.56348,1.2998,1.90625.58984,3.65625,1.43945,5.25195,2.54785,1.59473,1.11035,2.87695,2.63574,3.84863,4.57617.96973,1.94141,1.45605,4.47168,1.45605,7.5918,0,5.89355-1.95996,10.36621-5.87695,13.41602s-9.68945,4.57617-17.31543,4.57617Z"/></g></svg>